<svg width="127" height="32" viewBox="0 0 127 32" fill="none" xmlns="http://www.w3.org/2000/svg">
<path d="M72.6829 26.1696C71.1272 26.1696 69.7389 25.8545 68.518 25.2244C67.3167 24.5745 66.3715 23.6785 65.6823 22.5364C64.9931 21.3942 64.6484 20.1044 64.6484 18.6668C64.6484 17.2293 64.9832 15.9493 65.6527 14.8268C66.342 13.6847 67.2675 12.7887 68.4294 12.1388C69.5912 11.489 70.9007 11.1641 72.358 11.1641C73.7758 11.1641 75.0263 11.4693 76.1094 12.0798C77.1924 12.6902 78.0392 13.537 78.6497 14.6201C79.2798 15.7031 79.5949 16.9438 79.5949 18.3419C79.5949 18.5979 79.5752 18.8736 79.5358 19.169C79.5161 19.4447 79.4669 19.7696 79.3881 20.1438L67.0115 20.1733V17.0718L77.4681 17.0422L75.5186 18.3419C75.4989 17.5148 75.3709 16.8354 75.1346 16.3038C74.8983 15.7524 74.5438 15.3388 74.0712 15.0631C73.6183 14.7678 73.0571 14.6201 72.3875 14.6201C71.6786 14.6201 71.0583 14.7874 70.5266 15.1222C70.0146 15.4373 69.6109 15.8902 69.3155 16.481C69.0398 17.0718 68.902 17.7905 68.902 18.6373C68.902 19.4841 69.0497 20.2127 69.3451 20.8231C69.6601 21.4139 70.0934 21.8767 70.6447 22.2114C71.2158 22.5265 71.8854 22.6841 72.6534 22.6841C73.3623 22.6841 74.0023 22.5659 74.5734 22.3296C75.1444 22.0736 75.6466 21.6994 76.0798 21.2071L78.5611 23.6884C77.8521 24.5154 76.9955 25.1358 75.9912 25.5493C74.9869 25.9628 73.8841 26.1696 72.6829 26.1696ZM91.2582 25.8447V17.6625C91.2582 16.9142 91.0219 16.3136 90.5492 15.8607C90.0963 15.3881 89.5154 15.1518 88.8065 15.1518C88.3142 15.1518 87.8809 15.2601 87.5068 15.4767C87.1326 15.6736 86.8372 15.969 86.6206 16.3628C86.404 16.737 86.2957 17.1702 86.2957 17.6625L84.5529 16.8059C84.5529 15.6834 84.7991 14.6988 85.2914 13.8521C85.7837 13.0053 86.4631 12.3554 87.3295 11.9025C88.2157 11.4299 89.2102 11.1936 90.3129 11.1936C91.3763 11.1936 92.3117 11.4496 93.1191 11.9616C93.9462 12.4539 94.596 13.1136 95.0686 13.9407C95.5412 14.7678 95.7775 15.6736 95.7775 16.6582V25.8447H91.2582ZM81.7763 25.8447V11.489H86.2957V25.8447H81.7763Z" fill="#4FC1E9"/>
<path d="M115.898 26.1418C114.579 26.1418 113.397 25.8169 112.353 25.167C111.329 24.5172 110.512 23.631 109.902 22.5085C109.311 21.3861 109.016 20.1061 109.016 18.6685C109.016 17.231 109.311 15.951 109.902 14.8285C110.512 13.7061 111.329 12.8199 112.353 12.1701C113.397 11.5202 114.579 11.1953 115.898 11.1953C116.863 11.1953 117.729 11.3824 118.497 11.7565C119.285 12.1307 119.925 12.6525 120.417 13.3221C120.91 13.9719 121.185 14.7202 121.245 15.567V21.7701C121.185 22.6169 120.91 23.375 120.417 24.0445C119.945 24.6944 119.315 25.2064 118.527 25.5805C117.739 25.9547 116.863 26.1418 115.898 26.1418ZM116.814 22.0655C117.779 22.0655 118.557 21.7504 119.147 21.1202C119.738 20.4704 120.033 19.6532 120.033 18.6685C120.033 17.999 119.896 17.4082 119.62 16.8962C119.364 16.3842 118.99 15.9904 118.497 15.7147C118.025 15.4193 117.473 15.2716 116.843 15.2716C116.213 15.2716 115.652 15.4193 115.16 15.7147C114.687 15.9904 114.303 16.3842 114.008 16.8962C113.732 17.4082 113.594 17.999 113.594 18.6685C113.594 19.3184 113.732 19.8993 114.008 20.4113C114.283 20.9233 114.667 21.327 115.16 21.6224C115.652 21.9178 116.203 22.0655 116.814 22.0655ZM119.856 25.8464V21.9769L120.536 18.4913L119.856 15.0058V11.4907H124.287V25.8464H119.856Z" fill="#4FC1E9"/>
<path d="M100.135 25.8452V8.83594H104.418V25.8452H100.135ZM97.4766 17.3775V13.8082H107.077V17.3775H97.4766Z" fill="#4FC1E9"/>
<path d="M62.2763 11.8139C61.0167 11.2158 58.3502 10.9619 56.9658 11.128C55.5813 11.2941 54.2723 11.8488 53.1899 12.7279C52.1076 13.607 51.2963 14.7745 50.8497 16.0955C50.4032 17.4163 50.3399 18.8368 50.667 20.1922C50.994 21.5477 51.6982 22.7829 52.698 23.7548C53.6977 24.7267 54.9521 25.3958 56.3163 25.6845C57.6805 25.9733 59.0985 25.87 60.4063 25.3864C61.7141 24.9029 62.8583 24.0591 63.7066 22.9523L60.2305 20.2881C59.8854 20.7384 59.4198 21.0818 58.8876 21.2786C58.3553 21.4753 57.7783 21.5174 57.2233 21.3999C56.6682 21.2824 56.1577 21.0102 55.7508 20.6146C55.344 20.2191 55.0575 19.7164 54.9244 19.1649C54.7913 18.6133 54.8171 18.0353 54.9988 17.4978C55.1804 16.9602 55.5107 16.4851 55.951 16.1275C56.3915 15.7697 56.9242 15.544 57.4875 15.4764C58.4711 15.3584 59.5716 15.1985 60.19 14.4245L62.2763 11.8139Z" fill="#5E6EE6"/>
<path d="M53.1562 24.1636C53.9231 24.7942 54.8093 25.2638 55.7618 25.5441C56.7143 25.8245 57.7134 25.9099 58.6996 25.7953C59.686 25.6806 60.639 25.3683 61.5016 24.8769C62.3644 24.3855 63.1192 23.7252 63.7209 22.9354L60.2372 20.2812C59.9924 20.6026 59.6852 20.8713 59.3342 21.0713C58.9831 21.2713 58.5953 21.3983 58.1939 21.4449C57.7927 21.4916 57.386 21.4569 56.9985 21.3428C56.6109 21.2287 56.2503 21.0377 55.9382 20.7809L53.1562 24.1636Z" fill="#4FC1E9"/>
<path d="M57.8441 19.9382C58.6598 19.9382 59.321 19.277 59.321 18.4613C59.321 17.6456 58.6598 16.9844 57.8441 16.9844C57.0284 16.9844 56.3672 17.6456 56.3672 18.4613C56.3672 19.277 57.0284 19.9382 57.8441 19.9382Z" fill="#4FC1E9"/>
<path d="M0.445312 25.8434L8.71608 4.98921H12.9105L21.0927 25.8434H16.1893L9.92716 8.53382H11.6109L5.26008 25.8434H0.445312ZM5.14193 22.0624V18.2815H16.5142V22.0624H5.14193ZM28.0495 26.1978C27.2027 26.1978 26.3658 26.0895 25.5387 25.8729C24.7313 25.6563 23.9732 25.3511 23.2643 24.9572C22.575 24.5437 21.9843 24.0711 21.492 23.5394L24.0618 20.94C24.5344 21.452 25.0957 21.8557 25.7455 22.1511C26.3953 22.4267 27.1043 22.5646 27.8723 22.5646C28.404 22.5646 28.8077 22.4858 29.0833 22.3283C29.3787 22.1707 29.5264 21.9541 29.5264 21.6784C29.5264 21.324 29.3492 21.0581 28.9947 20.8809C28.66 20.684 28.2267 20.5166 27.695 20.3787C27.1633 20.2212 26.6021 20.0538 26.0113 19.8766C25.4206 19.6994 24.8593 19.4532 24.3277 19.1381C23.796 18.8231 23.3627 18.3898 23.028 17.8384C22.6932 17.2674 22.5258 16.5486 22.5258 15.6821C22.5258 14.7566 22.7621 13.9591 23.2347 13.2895C23.7073 12.6003 24.3769 12.0587 25.2433 11.6649C26.1098 11.2711 27.124 11.0741 28.2858 11.0741C29.5067 11.0741 30.6292 11.2907 31.6532 11.724C32.6969 12.1375 33.5437 12.7578 34.1935 13.5849L31.6237 16.1843C31.1707 15.6526 30.6587 15.2784 30.0877 15.0618C29.5363 14.8452 28.9947 14.7369 28.463 14.7369C27.951 14.7369 27.567 14.8157 27.311 14.9732C27.055 15.1111 26.927 15.3178 26.927 15.5935C26.927 15.8889 27.0944 16.1252 27.4292 16.3024C27.764 16.4797 28.1972 16.6372 28.7289 16.7751C29.2606 16.9129 29.8218 17.0803 30.4126 17.2772C31.0033 17.4741 31.5646 17.74 32.0963 18.0747C32.628 18.4095 33.0612 18.8624 33.396 19.4335C33.7307 19.9849 33.8981 20.7135 33.8981 21.6194C33.8981 23.0175 33.3664 24.1301 32.303 24.9572C31.2593 25.7843 29.8415 26.1978 28.0495 26.1978ZM45.2411 25.8434L40.2196 18.3997L45.2116 11.4877H50.2627L44.2368 19.2563L44.3845 17.3954L50.5581 25.8434H45.2411ZM36.0547 25.8434V4.39844H40.5741V25.8434H36.0547Z" fill="#5E6EE6"/>
<path d="M41.8456 3.69531H34.4609V11.0799H41.8456V3.69531Z" fill="white"/>
</svg>
