<svg width="32" height="32" viewBox="0 0 32 32" fill="none" xmlns="http://www.w3.org/2000/svg">
<rect width="32" height="32" fill="#0A0826"/>
<g clip-path="url(#clip0_12_445)">
<rect width="390" height="3402" transform="translate(-16 -3180)" fill="#F4F3FC"/>
<mask id="path-1-inside-1_12_445" fill="white">
<path d="M-16 -24H374V222H-16V-24Z"/>
</mask>
<path d="M-16 -24H374V222H-16V-24Z" fill="#F1F0F6"/>
<path d="M-16 -23H374V-25H-16V-23Z" fill="#DEDDE3" mask="url(#path-1-inside-1_12_445)"/>
<path d="M25.6 1.60195C22.8709 0.306144 17.0934 -0.244052 14.0938 0.115875C11.0942 0.475803 8.25782 1.67761 5.91276 3.58229C3.56768 5.48695 1.80979 8.01663 0.842419 10.8787C-0.124948 13.7407 -0.26225 16.8182 0.446395 19.755C1.15504 22.6918 2.68069 25.3681 4.84682 27.4739C7.01295 29.5798 9.73103 31.0294 12.6866 31.6551C15.6423 32.2808 18.7146 32.0568 21.5483 31.0092C24.3819 29.9615 26.861 28.1331 28.6988 25.7353L21.1675 19.9627C20.4197 20.9384 19.4108 21.6825 18.2577 22.1088C17.1047 22.5351 15.8544 22.6262 14.6517 22.3716C13.449 22.1171 12.3429 21.5272 11.4615 20.6702C10.58 19.8132 9.95916 18.7242 9.67082 17.5291C9.38245 16.3341 9.4383 15.0818 9.83195 13.9171C10.2256 12.7525 10.9409 11.7231 11.8952 10.948C12.8495 10.173 14.0037 9.6839 15.2243 9.53744C17.3556 9.28171 19.7398 8.93518 21.0798 7.2583L25.6 1.60195Z" fill="#5E6EE6"/>
<path d="M5.83594 28.3572C7.49743 29.7236 9.41743 30.7409 11.4811 31.3484C13.5448 31.9559 15.7098 32.1408 17.8466 31.8924C19.9835 31.644 22.0483 30.9674 23.9176 29.9025C25.7869 28.8379 27.4223 27.4072 28.726 25.6962L21.178 19.9453C20.6475 20.6416 19.982 21.2238 19.2213 21.6571C18.4607 22.0903 17.6204 22.3657 16.7509 22.4668C15.8814 22.5679 15.0004 22.4926 14.1606 22.2454C13.3208 21.9982 12.5395 21.5842 11.8634 21.0281L5.83594 28.3572Z" fill="#4FC1E9"/>
<path d="M15.9969 19.1969C17.7642 19.1969 19.1969 17.7642 19.1969 15.9969C19.1969 14.2296 17.7642 12.7969 15.9969 12.7969C14.2296 12.7969 12.7969 14.2296 12.7969 15.9969C12.7969 17.7642 14.2296 19.1969 15.9969 19.1969Z" fill="#4FC1E9"/>
</g>
<defs>
<clipPath id="clip0_12_445">
<rect width="390" height="3402" fill="white" transform="translate(-16 -3180)"/>
</clipPath>
</defs>
</svg>
