<svg width="131" height="112" viewBox="0 0 131 112" fill="none" xmlns="http://www.w3.org/2000/svg">
<path d="M11.976 99.024H5.688L4.68 102H0.384L6.48 85.152H11.232L17.328 102H12.984L11.976 99.024ZM10.92 95.856L8.832 89.688L6.768 95.856H10.92ZM25.2793 102.168C24.0473 102.168 22.9433 101.968 21.9673 101.568C20.9913 101.168 20.2073 100.576 19.6153 99.792C19.0393 99.008 18.7353 98.064 18.7033 96.96H23.0713C23.1353 97.584 23.3513 98.064 23.7193 98.4C24.0873 98.72 24.5673 98.88 25.1593 98.88C25.7673 98.88 26.2473 98.744 26.5993 98.472C26.9513 98.184 27.1273 97.792 27.1273 97.296C27.1273 96.88 26.9833 96.536 26.6953 96.264C26.4233 95.992 26.0793 95.768 25.6633 95.592C25.2633 95.416 24.6873 95.216 23.9353 94.992C22.8473 94.656 21.9593 94.32 21.2713 93.984C20.5833 93.648 19.9913 93.152 19.4953 92.496C18.9993 91.84 18.7513 90.984 18.7513 89.928C18.7513 88.36 19.3193 87.136 20.4553 86.256C21.5913 85.36 23.0713 84.912 24.8953 84.912C26.7513 84.912 28.2473 85.36 29.3833 86.256C30.5193 87.136 31.1273 88.368 31.2073 89.952H26.7673C26.7353 89.408 26.5353 88.984 26.1673 88.68C25.7993 88.36 25.3273 88.2 24.7513 88.2C24.2553 88.2 23.8553 88.336 23.5513 88.608C23.2473 88.864 23.0953 89.24 23.0953 89.736C23.0953 90.28 23.3513 90.704 23.8633 91.008C24.3753 91.312 25.1753 91.64 26.2633 91.992C27.3513 92.36 28.2313 92.712 28.9033 93.048C29.5913 93.384 30.1833 93.872 30.6793 94.512C31.1753 95.152 31.4233 95.976 31.4233 96.984C31.4233 97.944 31.1753 98.816 30.6793 99.6C30.1993 100.384 29.4953 101.008 28.5673 101.472C27.6393 101.936 26.5433 102.168 25.2793 102.168ZM43.7169 102L38.0529 94.56V102H33.9489V85.152H38.0529V92.544L43.6689 85.152H48.4929L41.9649 93.408L48.7329 102H43.7169Z" fill="#6356E5"/>
<path d="M49.9873 93.552C49.9873 91.888 50.3473 90.408 51.0673 89.112C51.7873 87.8 52.7873 86.784 54.0673 86.064C55.3633 85.328 56.8273 84.96 58.4593 84.96C60.4593 84.96 62.1713 85.488 63.5953 86.544C65.0193 87.6 65.9713 89.04 66.4513 90.864H61.9393C61.6033 90.16 61.1233 89.624 60.4993 89.256C59.8913 88.888 59.1953 88.704 58.4113 88.704C57.1473 88.704 56.1233 89.144 55.3393 90.024C54.5553 90.904 54.1633 92.08 54.1633 93.552C54.1633 95.024 54.5553 96.2 55.3393 97.08C56.1233 97.96 57.1473 98.4 58.4113 98.4C59.1953 98.4 59.8913 98.216 60.4993 97.848C61.1233 97.48 61.6033 96.944 61.9393 96.24H66.4513C65.9713 98.064 65.0193 99.504 63.5953 100.56C62.1713 101.6 60.4593 102.12 58.4593 102.12C56.8273 102.12 55.3633 101.76 54.0673 101.04C52.7873 100.304 51.7873 99.288 51.0673 97.992C50.3473 96.696 49.9873 95.216 49.9873 93.552ZM73.0686 88.44V91.848H78.5646V95.016H73.0686V98.712H79.2846V102H68.9646V85.152H79.2846V88.44H73.0686ZM97.0209 102H92.9169L86.0529 91.608V102H81.9489V85.152H86.0529L92.9169 95.592V85.152H97.0209V102ZM112.116 85.152V88.44H107.652V102H103.548V88.44H99.0838V85.152H112.116ZM124.664 99.024H118.376L117.368 102H113.072L119.168 85.152H123.92L130.016 102H125.672L124.664 99.024ZM123.608 95.856L121.52 89.688L119.456 95.856H123.608Z" fill="#4FC1E9"/>
<path d="M57.6349 12.2433C59.4471 9.10448 63.4607 8.02906 66.5995 9.84124C69.7382 11.6534 70.8137 15.667 69.0015 18.8058L51.5203 49.0841C49.7081 52.2228 45.6946 53.2983 42.5558 51.4861C39.417 49.6739 38.3416 45.6603 40.1537 42.5216L57.6349 12.2433Z" fill="#5E6EE6"/>
<path opacity="0.5" d="M68.658 35.1342C70.5709 38.2128 74.6171 39.1578 77.6955 37.2449C80.7741 35.332 81.7191 31.2858 79.8062 28.2072L69.6375 11.8421C67.7246 8.76359 63.6784 7.81865 60.6 9.73148C57.5214 11.6443 56.5764 15.6906 58.4893 18.769L68.658 35.1342Z" fill="#4FC1E9"/>
<path d="M77.522 50.3168C75.0086 47.7057 75.0877 43.5513 77.6988 41.0376C80.3099 38.5242 84.4644 38.6033 86.978 41.2144C89.4914 43.8256 89.4123 47.98 86.8012 50.4936C84.1901 53.0071 80.0356 52.9279 77.522 50.3168Z" fill="url(#paint0_linear_501_242)"/>
<path d="M66.9565 9.20024C70.0351 11.1131 70.9801 15.1593 69.0672 18.2378C67.1543 21.3163 63.1081 22.2613 60.0295 20.3485C56.9511 18.4356 56.0061 14.3893 57.919 11.3108C59.8319 8.23235 63.8781 7.28739 66.9565 9.20024Z" fill="#4FC1E9"/>
<path d="M70.8264 26.1611C67.748 28.074 66.803 32.1202 68.7159 35.1988C70.6288 38.2773 74.675 39.2222 77.7534 37.3095C80.8319 35.3966 81.7769 31.3503 79.8641 28.2718C77.9512 25.1932 73.9049 24.2484 70.8264 26.1611Z" fill="#4FC1E9"/>
<defs>
<linearGradient id="paint0_linear_501_242" x1="82.8142" y1="52.5029" x2="74.9272" y2="44.1955" gradientUnits="userSpaceOnUse">
<stop stop-color="#6356E5"/>
<stop offset="1" stop-color="#4FC1E9"/>
</linearGradient>
</defs>
</svg>
