<svg width="334" height="303" viewBox="0 0 334 303" fill="none" xmlns="http://www.w3.org/2000/svg">
<g clip-path="url(#clip0_446_3030)">
<path d="M21.5518 33.8812L31.3329 30.9991L28.4789 40.8093L31.3329 50.5917L21.5518 47.7373L11.7429 50.5917L14.6246 40.8093L11.7429 30.9991L21.5518 33.8812Z" fill="black" stroke="white" stroke-miterlimit="10"/>
</g>
<g clip-path="url(#clip1_446_3030)">
<path d="M202.754 265.792L220.246 275.324L202.754 284.932L193.186 302.388L183.617 284.932L166.126 275.324L183.617 265.792L193.186 248.26L202.754 265.792Z" fill="#D9D9D9" stroke="white" stroke-miterlimit="10"/>
</g>
<path d="M313.543 216.279C312.525 218.126 310.617 219.483 307.82 220.331C305.02 221.18 301.374 221.505 296.963 221.314C288.143 220.934 276.382 218.501 262.489 214.248C234.711 205.745 198.515 189.999 160.492 169.023C122.469 148.047 89.8447 125.825 67.8355 106.862C56.8277 97.3782 48.496 88.7266 43.4693 81.4683C40.9554 77.8384 39.2846 74.5803 38.5092 71.7589C37.7345 68.94 37.8645 66.6024 38.883 64.7556C39.9015 62.9088 41.8091 61.5519 44.6063 60.7035C47.406 59.8544 51.0527 59.5298 55.4636 59.7201C64.2834 60.1007 76.0446 62.5338 89.9376 66.7867C117.715 75.2899 153.912 91.0351 191.934 112.011C229.957 132.987 262.582 155.209 284.591 174.172C295.599 183.656 303.93 192.308 308.957 199.566C311.471 203.196 313.142 206.454 313.917 209.276C314.692 212.094 314.562 214.432 313.543 216.279Z" stroke="black"/>
<path d="M302.303 236.66C301.284 238.507 299.377 239.863 296.58 240.712C293.78 241.561 290.133 241.886 285.722 241.695C276.902 241.315 265.141 238.882 251.248 234.629C223.47 226.126 187.274 210.381 149.251 189.405C111.228 168.429 78.6033 146.208 56.5941 127.245C45.5863 117.761 37.2545 109.109 32.2278 101.851C29.7139 98.2211 28.0432 94.963 27.2678 92.1416C26.4931 89.3227 26.6231 86.9852 27.6416 85.1384C28.6601 83.2916 30.5677 81.9347 33.365 81.0863C36.1647 80.2372 39.8114 79.9126 44.2223 80.1029C53.0422 80.4834 64.8034 82.9165 78.6965 87.1693C106.474 95.6723 142.671 111.417 180.694 132.393C218.717 153.369 251.341 175.59 273.35 194.553C284.358 204.037 292.69 212.689 297.717 219.947C300.231 223.577 301.901 226.835 302.677 229.657C303.451 232.475 303.322 234.813 302.303 236.66Z" stroke="black"/>
<path d="M291.061 257.044C290.043 258.891 288.135 260.248 285.338 261.096C282.538 261.945 278.891 262.27 274.481 262.08C265.661 261.699 253.899 259.266 240.007 255.013C212.229 246.51 176.032 230.765 138.01 209.789C99.9868 188.813 67.3622 166.591 45.353 147.628C34.3452 138.144 26.0135 129.492 20.9868 122.234C18.4729 118.604 16.8021 115.346 16.0267 112.525C15.252 109.706 15.382 107.368 16.4005 105.522C17.4191 103.675 19.3266 102.318 22.1239 101.469C24.9236 100.62 28.5702 100.296 32.9812 100.486C41.801 100.867 53.5622 103.3 67.4552 107.553C95.2331 116.056 131.429 131.801 169.452 152.777C207.475 173.753 240.099 195.974 262.109 214.937C273.117 224.422 281.448 233.073 286.475 240.331C288.989 243.961 290.66 247.22 291.435 250.041C292.21 252.86 292.08 255.197 291.061 257.044Z" stroke="black"/>
<ellipse cx="73.0735" cy="62.0797" rx="8.61353" ry="8.61469" fill="#D1EE51"/>
<ellipse cx="280.176" cy="261.132" rx="5.55712" ry="5.55787" fill="#D1EE51"/>
<path d="M42.3863 119.369C42.3863 122.185 44.6683 124.467 47.4832 124.467C50.2981 124.467 52.5801 122.185 52.5801 119.369C52.5801 116.554 50.2981 114.272 47.4832 114.272C44.6683 114.272 42.3863 116.554 42.3863 119.369Z" fill="#D1EE51"/>
<path d="M38.8835 119.37C38.8835 114.612 42.752 110.769 47.4829 110.769C52.24 110.769 56.0823 114.638 56.0823 119.37C56.0823 124.127 52.2139 127.97 47.4829 127.97C42.752 127.996 38.8835 124.127 38.8835 119.37ZM55.3765 119.37C55.3765 115.03 51.8479 111.501 47.509 111.501C43.1702 111.501 39.6415 115.03 39.6415 119.37C39.6415 123.709 43.1702 127.238 47.509 127.238C51.8218 127.264 55.3765 123.735 55.3765 119.37Z" fill="black"/>
<path d="M34.649 119.369C34.649 112.285 40.3993 106.534 47.4827 106.534C54.5661 106.534 60.3164 112.285 60.3164 119.369C60.3164 126.454 54.5661 132.205 47.4827 132.205C40.4255 132.205 34.649 126.454 34.649 119.369ZM59.5845 119.369C59.5845 112.703 54.1479 107.266 47.4827 107.266C40.8176 107.266 35.3809 112.703 35.3809 119.369C35.3809 126.036 40.8175 131.473 47.4827 131.473C54.1479 131.473 59.5845 126.062 59.5845 119.369Z" fill="black"/>
<path d="M170.346 213.465C166.843 214.662 162.839 212.289 161.447 208.174L139.775 144.669L152.438 140.337L174.132 203.929C175.525 208 173.828 212.267 170.346 213.465Z" fill="black"/>
<path d="M168.453 214.248C167.43 214.248 166.386 214.009 165.385 213.508C163.361 212.507 161.751 210.634 160.968 208.327L139.296 144.821C139.209 144.582 139.339 144.299 139.6 144.212L152.264 139.879C152.395 139.836 152.525 139.836 152.634 139.901C152.743 139.967 152.83 140.054 152.873 140.184L174.567 203.776C176.025 208.087 174.197 212.637 170.476 213.922C169.845 214.139 169.149 214.248 168.453 214.248ZM140.384 144.974L161.903 208.022C162.6 210.09 164.036 211.788 165.82 212.659C167.256 213.356 168.801 213.486 170.193 213.007C173.414 211.897 174.98 207.891 173.675 204.081L152.133 140.946L140.384 144.974Z" fill="black"/>
<path d="M150.196 85.518L109.224 114.756L93.2749 131.324L87.0084 142.405L86.9867 142.492C85.7464 144.408 86.4644 148.827 88.7926 153.334C91.0773 157.775 94.2976 160.866 96.5605 161.041L96.4952 161.084L108.528 162.39L131.048 158.798L178.852 141.686L238.275 151.875L238.689 151.897C223.762 149.11 203.614 129.146 188.97 100.91C174.348 72.695 169.692 44.8068 176.111 31.0477H176.089L150.522 84.8213L150.196 85.518Z" fill="#D1EE51"/>
<path d="M248.565 150.668C263.251 143.037 260.412 108.443 242.222 73.3992C224.033 38.3557 197.383 16.1334 182.697 23.7643C168.011 31.3952 170.85 65.9896 189.04 101.033C207.229 136.077 233.879 158.299 248.565 150.668Z" fill="white"/>
<path d="M242.107 152.659C235.71 152.659 228.007 149.089 219.717 142.144C208.424 132.695 197.348 118.131 188.536 101.106C175.198 75.3294 169.693 48.8997 174.523 33.7691C176.133 28.7183 178.832 25.1914 182.509 23.2974C189.82 19.5528 200.112 22.7313 211.514 32.2669C222.806 41.7154 233.882 56.28 242.694 73.3047C256.054 99.0812 261.559 125.511 256.707 140.641C255.097 145.692 252.399 149.219 248.721 151.113C246.741 152.158 244.522 152.659 242.107 152.659ZM189.167 22.7313C186.926 22.7313 184.837 23.1885 182.966 24.1682C179.506 25.9316 176.982 29.2843 175.459 34.0956C170.694 49.0086 176.177 75.1552 189.406 100.714C207.423 135.482 233.838 157.731 248.308 150.308C251.768 148.544 254.292 145.192 255.815 140.38C260.58 125.467 255.097 99.3207 241.867 73.7619C226.179 43.5006 204.159 22.7313 189.167 22.7313Z" fill="black"/>
<path d="M242.105 152.659C235.708 152.659 228.005 149.089 219.715 142.144C208.422 132.695 197.346 118.131 188.534 101.106C175.196 75.3294 169.691 48.8998 174.521 33.7691C176.131 28.7183 178.83 25.1915 182.507 23.2974C187.403 20.772 193.8 21.4034 201.002 25.1044C207.9 28.653 215.363 34.9447 222.63 43.2829C222.805 43.4789 222.783 43.7836 222.587 43.9578C222.391 44.132 222.086 44.1102 221.912 43.9143C207.16 26.9767 192.233 19.4005 182.964 24.1682C179.504 25.9317 176.98 29.2844 175.457 34.0957C170.692 49.0086 176.175 75.1552 189.404 100.714C205.071 130.954 227.113 151.745 242.083 151.745C244.324 151.745 246.413 151.287 248.284 150.308C251.744 148.544 254.268 145.192 255.791 140.38C260.556 125.467 255.073 99.3207 241.844 73.7619C237.905 66.1422 233.466 58.9796 228.701 52.4702C228.549 52.2525 228.592 51.9477 228.81 51.7953C229.028 51.6429 229.332 51.6864 229.485 51.9041C234.293 58.4571 238.732 65.6632 242.714 73.3265C256.052 99.0812 261.557 125.511 256.705 140.642C255.095 145.692 252.397 149.219 248.72 151.113C246.739 152.158 244.52 152.659 242.105 152.659Z" fill="black"/>
<path d="M215.245 106.058C218.648 104.29 217.993 96.2829 213.783 88.1732C209.573 80.0635 203.402 74.9222 200 76.6898C196.598 78.4574 197.252 86.4646 201.462 94.5743C205.672 102.684 211.843 107.825 215.245 106.058Z" fill="#D1EE51"/>
<path d="M213.754 106.897C210.011 106.897 204.789 102.064 201.025 94.7707C197.891 88.7184 196.608 82.492 197.761 78.8999C198.174 77.6372 198.849 76.7446 199.785 76.2656C203.484 74.3715 209.815 79.5312 214.211 88C217.344 94.0523 218.628 100.279 217.475 103.871C217.061 105.134 216.387 106.026 215.451 106.505C214.929 106.766 214.363 106.897 213.754 106.897ZM201.482 76.8099C201.025 76.8099 200.59 76.897 200.22 77.0929C199.502 77.463 198.979 78.1596 198.653 79.1829C197.587 82.5356 198.827 88.5007 201.852 94.3353C205.855 102.064 211.883 107.267 214.994 105.656C215.712 105.286 216.234 104.589 216.561 103.566C217.627 100.192 216.365 94.2482 213.362 88.4137C209.837 81.643 204.789 76.8099 201.482 76.8099Z" fill="#D1EE51"/>
<path d="M238.798 144.538C233.185 144.538 226.439 141.403 219.172 135.329C209.293 127.056 199.589 114.299 191.886 99.4077C180.201 76.8532 175.393 53.711 179.614 40.4526C181.028 36.0114 183.4 32.9199 186.642 31.2436C194.084 27.4337 205.028 31.8314 216.691 43.3046C216.887 43.5005 216.887 43.7835 216.691 43.9795C216.495 44.1754 216.213 44.1754 216.017 43.9795C204.659 32.8111 194.105 28.4569 187.077 32.0927C184.075 33.6384 181.877 36.5339 180.528 40.7356C176.372 53.7545 181.159 76.6138 192.735 98.9723C206.421 125.424 225.678 143.58 238.777 143.58C240.735 143.58 242.541 143.167 244.195 142.34C247.197 140.794 249.395 137.898 250.744 133.697C254.9 120.678 250.113 97.8184 238.537 75.4599C235.034 68.711 231.118 62.3757 226.896 56.65C226.744 56.4323 226.787 56.1275 227.005 55.9751C227.223 55.8227 227.527 55.8663 227.68 56.084C231.944 61.875 235.883 68.232 239.408 75.0245C251.092 97.5789 255.901 120.721 251.68 133.98C250.265 138.421 247.894 141.512 244.652 143.189C242.867 144.081 240.909 144.538 238.798 144.538Z" fill="black"/>
<path d="M108.551 162.848C108.529 162.848 108.507 162.848 108.507 162.848L96.4744 161.541C96.4091 161.541 96.3438 161.52 96.2786 161.476C93.798 161.084 90.6648 157.949 88.3801 153.551C85.9431 148.914 85.2251 144.386 86.5524 142.252L86.5741 142.187L92.8407 131.084C92.8624 131.041 92.8842 131.019 92.9059 130.997L108.855 114.43C108.877 114.408 108.899 114.386 108.92 114.364L149.783 85.1915L175.633 30.83C175.698 30.7212 175.785 30.6341 175.916 30.5905C176.046 30.547 176.177 30.547 176.286 30.6123C176.525 30.7212 176.634 31.0042 176.525 31.2436C169.976 45.2858 175.154 73.1958 189.384 100.67C203.636 128.189 223.502 148.566 238.799 151.374C239.038 151.418 239.212 151.636 239.19 151.897C239.168 152.136 238.951 152.311 238.712 152.332L238.298 152.311C238.276 152.311 238.255 152.311 238.233 152.311L178.918 142.144L131.223 159.212C131.201 159.212 131.158 159.234 131.136 159.234L108.616 162.826C108.594 162.848 108.572 162.848 108.551 162.848ZM96.8225 160.627L108.551 161.89L130.962 158.297L178.744 141.207C178.831 141.186 178.897 141.164 178.984 141.186L232.38 150.329C217.954 143.994 201.091 125.293 188.579 101.128C176.155 77.1363 170.607 52.7749 173.653 37.383L150.632 85.714C150.588 85.7793 150.545 85.8446 150.48 85.8881L109.551 115.126L93.6675 131.607L87.401 142.71C87.401 142.731 87.3792 142.753 87.3792 142.753C86.2478 144.517 87.0093 148.871 89.2069 153.116C91.3611 157.274 94.4726 160.409 96.6049 160.562C96.692 160.562 96.7572 160.583 96.8225 160.627Z" fill="black"/>
<path d="M150.261 85.3438L176.089 31.0259H176.11C169.692 44.785 174.37 72.6733 188.97 100.888C203.614 129.147 223.763 149.11 238.733 151.853L238.319 151.832L178.983 141.665L177.612 141.425C170.714 140.206 161.51 131.236 154.917 118.435C148.15 105.308 146.953 92.2234 149.956 85.997L150.261 85.3438Z" fill="white"/>
<path d="M238.733 152.332C238.711 152.332 238.733 152.332 238.733 152.332L238.298 152.311C238.276 152.311 238.254 152.311 238.232 152.311L178.895 142.144L177.525 141.904C170.235 140.62 160.988 131.28 154.482 118.675C147.106 104.35 146.736 91.5921 149.521 85.8011L149.847 85.1479L175.675 30.8518C175.74 30.7429 175.827 30.6559 175.958 30.6123C176.089 30.5688 176.219 30.5688 176.328 30.6341C176.567 30.7429 176.676 31.026 176.567 31.2654C170.018 45.3075 175.196 73.2176 189.427 100.692C203.679 128.21 223.545 148.588 238.842 151.396C239.081 151.44 239.255 151.657 239.233 151.919C239.168 152.136 238.972 152.332 238.733 152.332ZM173.608 37.383L150.696 85.5616L150.369 86.2147C147.606 91.9622 148.411 104.807 155.33 118.218C161.706 130.583 170.692 139.727 177.699 140.946L179.07 141.186L232.357 150.329C217.931 143.994 201.068 125.293 188.556 101.128C176.132 77.1363 170.584 52.7749 173.608 37.383Z" fill="black"/>
<path d="M107.897 162.782C107.875 162.782 107.853 162.782 107.853 162.782L96.4516 161.563C96.3863 161.563 96.321 161.541 96.2558 161.498C93.7752 161.106 90.6419 157.971 88.3572 153.573C85.942 148.914 85.2239 144.386 86.5512 142.253L86.573 142.187L92.8396 131.084C92.9701 130.845 93.253 130.779 93.4924 130.91C93.7317 131.041 93.797 131.324 93.6664 131.563L87.3998 142.71C87.3998 142.731 87.3781 142.753 87.3781 142.753C86.2466 144.517 87.0082 148.871 89.2058 153.116C91.36 157.274 94.4715 160.409 96.6039 160.562C96.6692 160.562 96.7562 160.583 96.7997 160.627L107.94 161.824C108.201 161.846 108.397 162.086 108.354 162.347C108.332 162.586 108.136 162.782 107.897 162.782Z" fill="black"/>
<path d="M108.658 162.303C104.959 162.042 99.7805 156.795 96.0162 149.546C92.0343 141.861 91.0986 133.914 93.5356 131.084L87.0297 142.405L86.9862 142.492C85.7459 144.408 86.464 148.827 88.7922 153.334C91.0769 157.775 94.2972 160.866 96.5601 161.041L96.4949 161.084L108.658 162.303Z" fill="white"/>
<path d="M108.658 162.782C108.636 162.782 108.636 162.782 108.614 162.782C108.527 162.782 108.419 162.761 108.332 162.761L96.4511 161.563C96.3858 161.563 96.3205 161.541 96.2553 161.498C93.7747 161.106 90.6414 157.971 88.3567 153.573C85.9415 148.914 85.2234 144.386 86.5507 142.253L86.5725 142.187L92.2951 132.216C92.5127 131.65 92.7956 131.15 93.1437 130.736C93.296 130.54 93.5789 130.518 93.7747 130.649C93.9706 130.801 94.0359 131.062 93.9053 131.28L93.1002 132.652C91.8164 136.113 93.0785 142.906 96.3858 149.263C99.9761 156.208 104.872 161.28 108.375 161.737L108.636 161.759C108.897 161.781 109.093 162.02 109.071 162.282C109.093 162.586 108.897 162.782 108.658 162.782ZM96.7992 160.627L105.111 161.476C101.913 159.43 98.3877 155.206 95.5807 149.763C92.8609 144.517 91.5118 139.074 91.7294 135.155L87.3993 142.71C87.3993 142.732 87.3776 142.753 87.3776 142.753C86.2461 144.517 87.0077 148.871 89.2053 153.116C91.3595 157.274 94.471 160.409 96.6034 160.562C96.6687 160.562 96.7557 160.584 96.7992 160.627Z" fill="black"/>
<path d="M130.245 158.885L131.202 158.689C126.024 159.778 117.842 151.94 112.076 140.816C106.179 129.451 105.07 118.109 109.247 114.756L108.703 115.3L93.5808 131.019C91.1003 133.805 92.0142 141.795 96.0178 149.524C99.8692 156.969 105.331 162.281 109.051 162.26L130.245 158.885Z" fill="black"/>
<path d="M109.03 162.76C105.07 162.76 99.5648 157.427 95.5829 149.763C91.5357 141.926 90.513 133.74 93.2111 130.714L108.051 115.3C108.312 114.952 108.617 114.647 108.943 114.386C109.139 114.234 109.422 114.255 109.596 114.43C109.77 114.625 109.77 114.908 109.596 115.083L108.747 115.975C105.723 120.025 107.224 130.387 112.511 140.598C118.212 151.614 126.176 159.168 131.05 158.254L131.115 158.232C131.376 158.189 131.616 158.341 131.681 158.602C131.725 158.864 131.572 159.103 131.311 159.168C131.289 159.168 131.268 159.168 131.246 159.19L130.354 159.364H130.332L109.139 162.739C109.095 162.739 109.052 162.76 109.03 162.76ZM106.789 118L93.9292 131.367C91.5357 134.067 92.6236 141.948 96.4532 149.328C100.196 156.556 105.483 161.781 109.03 161.803L127.743 158.82C122.695 157.035 116.472 150.308 111.663 141.055C107.093 132.238 105.331 123.268 106.789 118Z" fill="black"/>
<path d="M200.003 76.6791C196.587 78.4207 197.087 86.4977 201.439 94.5528C208.728 108.029 214.538 106.44 215.212 106.2C215.234 106.2 215.234 106.222 215.212 106.222L202.701 116.302C199.024 111.142 195.52 105.395 192.3 99.19C189.232 93.2466 186.643 87.325 184.597 81.5775L200.003 76.6791Z" fill="black"/>
<path d="M202.701 116.781C202.679 116.781 202.657 116.781 202.635 116.781C202.505 116.759 202.396 116.694 202.309 116.585C198.545 111.295 195.041 105.504 191.886 99.4295C188.862 93.595 186.251 87.6516 184.162 81.7735C184.118 81.6429 184.118 81.5122 184.184 81.4034C184.249 81.2945 184.336 81.2074 184.467 81.1639L199.872 76.2655C200.111 76.2002 200.372 76.309 200.459 76.5485C200.546 76.788 200.459 77.0492 200.242 77.1581C199.502 77.5282 198.958 78.2684 198.632 79.3569C197.565 82.7749 198.871 88.8272 201.896 94.3787C209.011 107.528 214.494 106.026 215.081 105.808C215.299 105.721 215.56 105.83 215.669 106.026C215.778 106.222 215.734 106.505 215.56 106.657L203.005 116.672C202.918 116.737 202.809 116.781 202.701 116.781ZM185.228 81.8823C187.295 87.5645 189.819 93.312 192.735 98.9723C195.781 104.85 199.176 110.445 202.809 115.605L213.667 106.853C211.187 106.744 206.508 104.894 201.025 94.7706C197.848 88.9143 196.543 82.7314 197.696 79.0086C197.848 78.5296 198.022 78.116 198.24 77.7241L185.228 81.8823Z" fill="black"/>
<path d="M264.378 45.3508C274.325 40.1243 278.173 27.8537 272.971 17.9436C267.77 8.03353 255.49 4.23674 245.543 9.46323C235.595 14.6897 231.748 26.9603 236.949 36.8704C242.15 46.7805 254.431 50.5773 264.378 45.3508Z" fill="black"/>
<path d="M245.695 22.918C246.653 21.6118 248.067 20.8063 249.677 20.6321C250.896 20.5015 252.027 20.7627 253.093 21.4159C253.637 21.7424 254.116 22.1561 254.573 22.6568C254.899 22.069 255.291 21.5465 255.748 21.1111C256.64 20.2403 257.706 19.7395 258.903 19.6089C260.513 19.4347 262.08 19.9137 263.298 20.9805C264.495 22.0255 265.257 23.5494 265.453 25.2693C265.648 27.0327 265.17 28.7308 263.951 30.6031C262.863 32.2795 261.21 34.0211 259.295 36.0676C258.642 36.7642 257.902 37.548 257.141 38.3753C256.945 38.593 256.662 38.7454 256.357 38.7671C256.053 38.8107 255.77 38.7236 255.509 38.5494C254.573 37.8963 253.681 37.2867 252.898 36.7642C250.591 35.1967 248.589 33.8469 247.153 32.4536C245.543 30.9079 244.716 29.3404 244.52 27.577C244.346 25.8571 244.76 24.2025 245.695 22.918Z" fill="white"/>
<path d="M320.811 46.4588C328.094 39.1731 328.094 27.3607 320.811 20.0751C313.529 12.7894 301.721 12.7894 294.438 20.075C287.156 27.3607 287.156 39.1731 294.438 46.4588C301.721 53.7444 313.529 53.7444 320.811 46.4588Z" fill="#D1EE51"/>
<path d="M307.619 52.3958C297.088 52.3958 288.493 43.8181 288.493 33.2593C288.493 22.7223 297.066 14.1229 307.619 14.1229C318.172 14.1229 326.746 22.7005 326.746 33.2593C326.746 43.7963 318.172 52.3958 307.619 52.3958ZM307.619 15.0808C297.61 15.0808 289.451 23.223 289.451 33.2593C289.451 43.2738 297.588 51.4379 307.619 51.4379C317.628 51.4379 325.788 43.2956 325.788 33.2593C325.788 23.2448 317.65 15.0808 307.619 15.0808Z" fill="#D1EE51"/>
<path d="M312.668 35.1098C311.624 35.1098 310.71 35.6106 310.1 36.3943L303.812 33.9342C303.812 33.8471 303.834 33.7818 303.834 33.6948C303.834 33.5424 303.812 33.39 303.79 33.2376L310.231 30.255C310.819 30.9299 311.689 31.3653 312.668 31.3871C314.452 31.3871 315.932 29.9284 315.932 28.1215C315.932 26.3145 314.474 24.8341 312.668 24.8341C310.884 24.8341 309.404 26.2927 309.404 28.0997C309.404 28.2521 309.426 28.4045 309.448 28.5569L303.007 31.5395C302.42 30.8646 301.549 30.4291 300.57 30.4074C298.786 30.4074 297.306 31.866 297.306 33.673C297.306 35.4799 298.764 36.9604 300.57 36.9604C301.614 36.9604 302.528 36.4596 303.138 35.6759L309.426 38.136C309.426 38.2231 309.404 38.2884 309.404 38.3755C309.404 40.1824 310.862 41.6628 312.668 41.6628C314.452 41.6628 315.932 40.2042 315.932 38.3972C315.91 36.5903 314.452 35.1316 312.668 35.1098Z" fill="black"/>
<path d="M312.916 105.595C321.456 99.665 323.601 87.9713 317.708 79.4767C311.815 70.9822 300.116 68.9035 291.576 74.8338C283.037 80.7641 280.891 92.4578 286.784 100.952C292.677 109.447 304.377 111.526 312.916 105.595Z" fill="black"/>
<path d="M297.548 99.1373L294.807 84.2679C294.676 83.506 295.372 82.8746 296.112 83.0705L312.323 87.6642C313.149 87.9036 313.345 88.9704 312.671 89.4929L299.18 99.7687C298.593 100.248 297.701 99.9211 297.548 99.1373Z" fill="white"/>
<path d="M302.062 166.503C312.607 161.367 317.02 148.702 311.918 138.216C306.815 127.73 294.131 123.393 283.585 128.53C273.04 133.666 268.628 146.331 273.73 156.817C278.832 167.303 291.516 171.64 302.062 166.503Z" fill="#D1EE51"/>
<path d="M303.639 144.094C303.422 149.384 294.479 161.75 292.346 164.645C292.129 164.95 291.672 164.928 291.476 164.602C290.127 162.425 285.666 155.11 283.338 149.188C282.402 146.837 281.815 144.703 281.88 143.201C282.12 137.193 287.189 132.512 293.195 132.751C299.2 133.034 303.879 138.085 303.639 144.094Z" fill="black"/>
<path d="M296.28 147.187C298.226 145.24 298.226 142.083 296.28 140.136C294.334 138.189 291.179 138.189 289.233 140.136C287.287 142.083 287.287 145.24 289.233 147.187C291.179 149.134 294.334 149.134 296.28 147.187Z" fill="#D1EE51"/>
<path d="M59.833 238.158L58.2517 232.923L62.1217 228.912L67.4902 230.222L68.9909 235.54L65.1209 239.551L59.833 238.158Z" fill="#D9D9D9" stroke="#5E5D7F"/>
<path d="M37.6746 216.762L36.0923 211.524L39.9623 207.513L45.3341 208.823L46.9215 214.232L43.0564 218.239L37.6746 216.762Z" fill="white" stroke="#5E5D7F"/>
<path d="M45.9844 224.787L44.4021 219.549L48.2721 215.538L53.6439 216.848L55.2313 222.257L51.3662 226.263L45.9844 224.787Z" fill="white" stroke="#5E5D7F"/>
<path d="M19.2968 199.015L17.6286 193.689L21.4938 189.683L26.9562 191.076L28.4579 196.397L24.5879 200.408L19.2968 199.015Z" fill="white" stroke="#5E5D7F"/>
<path d="M16.7809 210.859L15.1128 205.533L18.9779 201.527L24.4403 202.92L25.942 208.241L22.0721 212.252L16.7809 210.859Z" fill="#D9D9D9" stroke="#5E5D7F"/>
<path d="M48.0271 196.796L49.6146 202.205L45.7452 206.215L40.2827 204.823L38.781 199.501L42.6552 195.486L48.0271 196.796Z" fill="white" stroke="#5E5D7F"/>
<path d="M38.8824 187.965L40.3841 193.286L36.5098 197.302L31.138 195.992L29.5505 190.583L33.4199 186.572L38.8824 187.965Z" fill="white" stroke="#5E5D7F"/>
<defs>
<clipPath id="clip0_446_3030">
<rect width="20.0056" height="20.0083" fill="white" transform="translate(11.5498 30.8051)"/>
</clipPath>
<clipPath id="clip1_446_3030">
<rect width="39.0835" height="39.0835" fill="white" transform="matrix(0.707053 0.70716 -0.707053 0.70716 193.186 247.724)"/>
</clipPath>
</defs>
</svg>
