<svg width="20" height="20" viewBox="0 0 20 20" fill="none" xmlns="http://www.w3.org/2000/svg">
<path d="M12.8968 13.775L13.775 12.8968L10.6276 9.74919V5.83592H9.3776V10.2558L12.8968 13.775ZM10.004 17.9192C8.90904 17.9192 7.87984 17.7115 6.9164 17.2959C5.95294 16.8803 5.11487 16.3164 4.40219 15.604C3.68949 14.8916 3.12528 14.0539 2.70954 13.0909C2.29381 12.1279 2.08594 11.0989 2.08594 10.004C2.08594 8.90904 2.29372 7.87984 2.70927 6.9164C3.12483 5.95294 3.68878 5.11487 4.40115 4.40219C5.11352 3.68949 5.95122 3.12528 6.91425 2.70954C7.87726 2.29381 8.90624 2.08594 10.0012 2.08594C11.0961 2.08594 12.1253 2.29372 13.0888 2.70927C14.0522 3.12483 14.8903 3.68879 15.603 4.40115C16.3157 5.11352 16.8799 5.95122 17.2956 6.91425C17.7114 7.87727 17.9192 8.90624 17.9192 10.0012C17.9192 11.0961 17.7115 12.1253 17.2959 13.0888C16.8803 14.0522 16.3164 14.8903 15.604 15.603C14.8916 16.3157 14.0539 16.8799 13.0909 17.2956C12.1279 17.7114 11.0989 17.9192 10.004 17.9192ZM10.0026 16.6693C11.8498 16.6693 13.4227 16.0199 14.7213 14.7213C16.0199 13.4227 16.6693 11.8498 16.6693 10.0026C16.6693 8.15536 16.0199 6.58245 14.7213 5.28383C13.4227 3.98522 11.8498 3.33592 10.0026 3.33592C8.15536 3.33592 6.58244 3.98522 5.28383 5.28383C3.98522 6.58245 3.33592 8.15536 3.33592 10.0026C3.33592 11.8498 3.98522 13.4227 5.28383 14.7213C6.58244 16.0199 8.15536 16.6693 10.0026 16.6693Z" fill="#5E5D7F"/>
</svg>
