<svg width="16" height="16" viewBox="0 0 16 16" fill="none" xmlns="http://www.w3.org/2000/svg">
<path d="M10.3157 11.0179L11.0182 10.3154L8.50029 7.79729V4.66667H7.50033V8.20257L10.3157 11.0179ZM8.00143 14.3333C7.12547 14.3333 6.30211 14.1671 5.53136 13.8347C4.76059 13.5022 4.09014 13.051 3.51999 12.4812C2.94984 11.9113 2.49846 11.2411 2.16588 10.4707C1.83329 9.70026 1.66699 8.87708 1.66699 8.00112C1.66699 7.12516 1.83321 6.30181 2.16566 5.53105C2.4981 4.76029 2.94927 4.08983 3.51916 3.51969C4.08906 2.94953 4.75922 2.49816 5.52964 2.16557C6.30005 1.83298 7.12324 1.66669 7.99919 1.66669C8.87515 1.66669 9.6985 1.83291 10.4693 2.16535C11.24 2.4978 11.9105 2.94896 12.4806 3.51885C13.0508 4.08875 13.5022 4.75892 13.8347 5.52934C14.1673 6.29975 14.3336 7.12293 14.3336 7.99889C14.3336 8.87484 14.1674 9.6982 13.835 10.469C13.5025 11.2397 13.0513 11.9102 12.4815 12.4803C11.9116 13.0505 11.2414 13.5018 10.471 13.8344C9.70057 14.167 8.87738 14.3333 8.00143 14.3333ZM8.00031 13.3333C9.47809 13.3333 10.7364 12.8139 11.7753 11.775C12.8142 10.7361 13.3336 9.47778 13.3336 8C13.3336 6.52223 12.8142 5.26389 11.7753 4.225C10.7364 3.18612 9.47809 2.66667 8.00031 2.66667C6.52253 2.66667 5.2642 3.18612 4.22531 4.225C3.18642 5.26389 2.66698 6.52223 2.66698 8C2.66698 9.47778 3.18642 10.7361 4.22531 11.775C5.2642 12.8139 6.52253 13.3333 8.00031 13.3333Z" fill="black"/>
</svg>
